<svg xmlns="http://www.w3.org/2000/svg" viewBox="0 0 450 100" width="100%" height="100%">
  <!-- Pure Monochrome Solid White Watermark (For Before/After Job Photos) -->
  <g fill="#FFFFFF" opacity="0.85">
    <!-- Crown Icon -->
    <g transform="translate(10, 10) scale(0.8)">
      <path d="M 22 74 L 78 74 A 2 2 0 0 1 80 76 L 80 79 A 3 3 0 0 1 77 82 L 23 82 A 3 3 0 0 1 20 79 L 20 76 A 2 2 0 0 1 22 74 Z" />
      <path d="M 20 72 L 16 38 L 34 52 L 50 24 L 66 52 L 84 38 L 80 72 Z" />
      <circle cx="16" cy="36" r="4.2"/>
      <circle cx="50" cy="22" r="5.2"/>
      <circle cx="84" cy="36" r="4.2"/>
    </g>

    <!-- Typography -->
    <text x="105" y="52" font-family="'Outfit', 'Inter', -apple-system, sans-serif" font-weight="900" font-size="34" letter-spacing="1">
      WINDSOR SPRAYING
    </text>
    <text x="107" y="76" font-family="'Inter', -apple-system, sans-serif" font-weight="700" font-size="12" letter-spacing="3" text-transform="uppercase">
      UPVC &amp; KITCHEN SPECIALISTS · 10-YR GUARANTEE
    </text>
  </g>
</svg>
